<?xml version="1.0" encoding="UTF-8"?>
<!--
Copyright (C) 2009/2010/2011 Ulrich Apel.
This work is distributed under the conditions of the Creative Commons
Attribution-Share Alike 3.0 Licence. This means you are free:
* to Share - to copy, distribute and transmit the work
* to Remix - to adapt the work

Under the following conditions:
* Attribution. You must attribute the work by stating your use of KanjiVG in
  your own copyright header and linking to KanjiVG's website
  (http://kanjivg.tagaini.net)
* Share Alike. If you alter, transform, or build upon this work, you may
  distribute the resulting work only under the same or similar license to this
  one.

See http://creativecommons.org/licenses/by-sa/3.0/ for more details.
-->

<!--ATTLIST path
xmlns:kvg CDATA #FIXED "http://kanjivg.tagaini.net"
kvg:type CDATA #IMPLIED -->
<!DOCTYPE svg PUBLIC "-//W3C//DTD SVG 1.0//EN" "http://www.w3.org/TR/2001/REC-SVG-20010904/DTD/svg10.dtd" [
<!ATTLIST g
xmlns:kvg CDATA #FIXED "http://kanjivg.tagaini.net"
kvg:element CDATA #IMPLIED
kvg:variant CDATA #IMPLIED
kvg:partial CDATA #IMPLIED
kvg:original CDATA #IMPLIED
kvg:part CDATA #IMPLIED
kvg:number CDATA #IMPLIED
kvg:tradForm CDATA #IMPLIED
kvg:radicalForm CDATA #IMPLIED
kvg:position CDATA #IMPLIED
kvg:radical CDATA #IMPLIED
kvg:phon CDATA #IMPLIED >
<!ATTLIST path
xmlns:kvg CDATA #FIXED "http://kanjivg.tagaini.net"
kvg:type CDATA #IMPLIED >
]>

<svg xmlns="http://www.w3.org/2000/svg" width="109" height="109" viewBox="0 0 109 109" class="" style="">
<g id="kvg:StrokePaths_09999" style="fill:none;stroke:#000000;stroke-width:3;stroke-linecap:round;stroke-linejoin:round;">
<g id="kvg:09999" kvg:element="香" kvg:radical="general">
	<g id="kvg:09999-g1" kvg:element="禾" kvg:position="top">
		<g id="kvg:09999-g2" kvg:element="丿" kvg:position="top">
			<path id="kvg:09999-s1" kvg:type="㇒" d="M65.23,10.73c0,0.77-0.48,1.39-1.77,2.14c-4.44,2.56-16.84,7.14-33.18,10" class="xRrNGFQF_0"></path>
		</g>
		<g id="kvg:09999-g3" kvg:element="木" kvg:position="bottom">
			<path id="kvg:09999-s2" kvg:type="㇐" d="M19.83,37.05c3.03,0.92,6.11,0.55,9.19,0.16c10.11-1.27,31.35-4.46,44.5-5.83c3.46-0.36,7.03-0.45,10.46,0.18" class="xRrNGFQF_1"></path>
			<path id="kvg:09999-s3" kvg:type="㇑" d="M52.73,21.06c0.92,0.92,1.08,2.19,1.08,3.85c0,6.46-0.04,16.84-0.04,27.59c0,1.8-0.02,3.57-0.02,5.25" class="xRrNGFQF_2"></path>
			<path id="kvg:09999-s4" kvg:type="㇒" d="M47.98,35.41c0,1.09-0.95,2.31-2.09,3.67c-7.48,8.93-19.42,19.21-31.13,24.39" class="xRrNGFQF_3"></path>
			<path id="kvg:09999-s5" kvg:type="㇏" d="M56.04,34.96c4.46,3.79,16.83,13.67,27.53,20.13c2.94,1.78,6.56,3.54,9.68,4.52" class="xRrNGFQF_4"></path>
		</g>
	</g>
	<g id="kvg:09999-g4" kvg:element="日" kvg:position="bottom">
		<path id="kvg:09999-s6" kvg:type="㇑" d="M33.02,65.47c0.76,0.76,1.42,2.12,1.53,3.07c0.83,7.34,1.84,16.47,2.84,24.76c0.21,1.78,0.43,3.45,0.66,4.95" class="xRrNGFQF_5"></path>
		<path id="kvg:09999-s7" kvg:type="㇕a" d="M35.44,67.59c8.15-1.36,24.31-3.72,36.08-4.79c3.5-0.32,6.77,0.39,6.35,4.71c-0.45,4.67-1.85,15.6-2.74,22.26c-0.3,2.22-0.54,3.97-0.68,4.85" class="xRrNGFQF_6"></path>
		<path id="kvg:09999-s8" kvg:type="㇐a" d="M36.58,80.52c8.29-0.9,31.17-3.65,39.22-4.11" class="xRrNGFQF_7"></path>
		<path id="kvg:09999-s9" kvg:type="㇐a" d="M38.44,94.26C46.12,93.5,63.88,92,74.29,91.4" class="xRrNGFQF_8"></path>
	</g>
</g>
</g>
<g id="kvg:StrokeNumbers_09999" style="font-size:8;fill:#808080">
	<text transform="matrix(1 0 0 1 57.75 9.13)">1</text>
	<text transform="matrix(1 0 0 1 12.50 37.50)">2</text>
	<text transform="matrix(1 0 0 1 45.75 28.50)">3</text>
	<text transform="matrix(1 0 0 1 30.75 46.63)">4</text>
	<text transform="matrix(1 0 0 1 71.25 43.63)">5</text>
	<text transform="matrix(1 0 0 1 27.50 74.50)">6</text>
	<text transform="matrix(1 0 0 1 38.25 63.50)">7</text>
	<text transform="matrix(1 0 0 1 41.25 76.50)">8</text>
	<text transform="matrix(1 0 0 1 41.24 90.50)">9</text>
</g>

<style>
	.xRrNGFQF_0{stroke-dasharray:38 40;stroke-dashoffset:39;animation:xRrNGFQF_draw_0 12800ms linear 0ms infinite,xRrNGFQF_fade 12800ms linear 0ms infinite;}
	.xRrNGFQF_1{stroke-dasharray:65 67;stroke-dashoffset:66;animation:xRrNGFQF_draw_1 12800ms linear 0ms infinite,xRrNGFQF_fade 12800ms linear 0ms infinite;}
	.xRrNGFQF_2{stroke-dasharray:37 39;stroke-dashoffset:38;animation:xRrNGFQF_draw_2 12800ms linear 0ms infinite,xRrNGFQF_fade 12800ms linear 0ms infinite;}
	.xRrNGFQF_3{stroke-dasharray:45 47;stroke-dashoffset:46;animation:xRrNGFQF_draw_3 12800ms linear 0ms infinite,xRrNGFQF_fade 12800ms linear 0ms infinite;}
	.xRrNGFQF_4{stroke-dasharray:45 47;stroke-dashoffset:46;animation:xRrNGFQF_draw_4 12800ms linear 0ms infinite,xRrNGFQF_fade 12800ms linear 0ms infinite;}
	.xRrNGFQF_5{stroke-dasharray:34 36;stroke-dashoffset:35;animation:xRrNGFQF_draw_5 12800ms linear 0ms infinite,xRrNGFQF_fade 12800ms linear 0ms infinite;}
	.xRrNGFQF_6{stroke-dasharray:74 76;stroke-dashoffset:75;animation:xRrNGFQF_draw_6 12800ms linear 0ms infinite,xRrNGFQF_fade 12800ms linear 0ms infinite;}
	.xRrNGFQF_7{stroke-dasharray:40 42;stroke-dashoffset:41;animation:xRrNGFQF_draw_7 12800ms linear 0ms infinite,xRrNGFQF_fade 12800ms linear 0ms infinite;}
	.xRrNGFQF_8{stroke-dasharray:36 38;stroke-dashoffset:37;animation:xRrNGFQF_draw_8 12800ms linear 0ms infinite,xRrNGFQF_fade 12800ms linear 0ms infinite;}
	@keyframes xRrNGFQF_draw{100%{stroke-dashoffset:0;}}@keyframes xRrNGFQF_fade{0%{stroke-opacity:1;}70.3125%{stroke-opacity:1;}100%{stroke-opacity:0;}}
	@keyframes xRrNGFQF_draw_0{0%{stroke-dashoffset: 39}6.482712765957446%{ stroke-dashoffset: 0;}100%{ stroke-dashoffset: 0;}}
	@keyframes xRrNGFQF_draw_1{6.482712765957446%{stroke-dashoffset: 66}17.45345744680851%{ stroke-dashoffset: 0;}100%{ stroke-dashoffset: 0;}}
	@keyframes xRrNGFQF_draw_2{17.45345744680851%{stroke-dashoffset: 38}23.76994680851064%{ stroke-dashoffset: 0;}100%{ stroke-dashoffset: 0;}}
	@keyframes xRrNGFQF_draw_3{23.76994680851064%{stroke-dashoffset: 46}31.416223404255316%{ stroke-dashoffset: 0;}100%{ stroke-dashoffset: 0;}}
	@keyframes xRrNGFQF_draw_4{31.416223404255316%{stroke-dashoffset: 46}39.0625%{ stroke-dashoffset: 0;}100%{ stroke-dashoffset: 0;}}
	@keyframes xRrNGFQF_draw_5{39.0625%{stroke-dashoffset: 35}44.88031914893617%{ stroke-dashoffset: 0;}100%{ stroke-dashoffset: 0;}}
	@keyframes xRrNGFQF_draw_6{44.880319148936174%{stroke-dashoffset: 75}57.34707446808511%{ stroke-dashoffset: 0;}100%{ stroke-dashoffset: 0;}}
	@keyframes xRrNGFQF_draw_7{57.347074468085104%{stroke-dashoffset: 41}64.1622340425532%{ stroke-dashoffset: 0;}100%{ stroke-dashoffset: 0;}}
	@keyframes xRrNGFQF_draw_8{64.1622340425532%{stroke-dashoffset: 37}70.3125%{ stroke-dashoffset: 0;}100%{ stroke-dashoffset: 0;}}
</style>

</svg>
