<?xml version="1.0" encoding="UTF-8"?>
<!--
Copyright (C) 2009/2010/2011 Ulrich Apel.
This work is distributed under the conditions of the Creative Commons
Attribution-Share Alike 3.0 Licence. This means you are free:
* to Share - to copy, distribute and transmit the work
* to Remix - to adapt the work

Under the following conditions:
* Attribution. You must attribute the work by stating your use of KanjiVG in
  your own copyright header and linking to KanjiVG's website
  (http://kanjivg.tagaini.net)
* Share Alike. If you alter, transform, or build upon this work, you may
  distribute the resulting work only under the same or similar license to this
  one.

See http://creativecommons.org/licenses/by-sa/3.0/ for more details.
-->
<!DOCTYPE svg PUBLIC "-//W3C//DTD SVG 1.0//EN" "http://www.w3.org/TR/2001/REC-SVG-20010904/DTD/svg10.dtd" [
<!ATTLIST g
xmlns:kvg CDATA #FIXED "http://kanjivg.tagaini.net"
kvg:element CDATA #IMPLIED
kvg:variant CDATA #IMPLIED
kvg:partial CDATA #IMPLIED
kvg:original CDATA #IMPLIED
kvg:part CDATA #IMPLIED
kvg:number CDATA #IMPLIED
kvg:tradForm CDATA #IMPLIED
kvg:radicalForm CDATA #IMPLIED
kvg:position CDATA #IMPLIED
kvg:radical CDATA #IMPLIED
kvg:phon CDATA #IMPLIED >
<!ATTLIST path
xmlns:kvg CDATA #FIXED "http://kanjivg.tagaini.net"
kvg:type CDATA #IMPLIED >
]>
<svg xmlns="http://www.w3.org/2000/svg" width="109" height="109" viewBox="0 0 109 109">
<g id="kvg:StrokePaths_09999" style="fill:none;stroke:#000000;stroke-width:3;stroke-linecap:round;stroke-linejoin:round;">
<g id="kvg:09999" kvg:element="香" kvg:radical="general">
	<g id="kvg:09999-g1" kvg:element="禾" kvg:position="top">
		<g id="kvg:09999-g2" kvg:element="丿" kvg:position="top">
			<path id="kvg:09999-s1" kvg:type="㇒" d="M65.23,10.73c0,0.77-0.48,1.39-1.77,2.14c-4.44,2.56-16.84,7.14-33.18,10,
				M48.127,18.048c-7.552,1.152-15.487,2.048-22.655,2.688c-0.513,0-0.896,0-1.28,0
				c-1.792,0-2.816-0.384-2.816-0.896s1.152-1.152,3.712-1.792C39.551,14.72,58.239,8.96,64.895,5.504
				C66.303,4.736,67.2,3.968,67.2,3.073c0-0.257,0-0.385-0.128-0.641c-0.128-0.512-0.257-1.023-0.257-1.408
				C66.815,0.384,67.2,0,67.967,0c0.642,0,1.408,0.256,2.562,0.512C74.24,1.536,80,4.608,82.303,6.656
				c1.023,0.896,1.407,1.663,1.407,2.304c0,2.048-5.376,2.176-8.063,3.072c-4.992,1.663-11.904,3.199-19.456,4.607L48.127,18.048z"/>
		</g>
		<g id="kvg:09999-g3" kvg:element="木" kvg:position="bottom">
			<path id="kvg:09999-s2" kvg:type="㇐" d="M19.83,37.05c3.03,0.92,6.11,0.55,9.19,0.16c10.11-1.27,31.35-4.46,44.5-5.83c3.46-0.36,7.03-0.45,10.46,0.18,
				M59.391,28.543c7.681-0.512,15.231-0.896,21.504-1.024c5.633-0.128,5.889-2.048,8.96-2.048c0,0,0.128,0,0.257,0
				c6.271,0,12.8,2.048,12.671,6.4c-0.128,3.199-3.199,3.712-8.447,3.712c-2.176,0-4.735,0-7.68-0.128
				c-3.328-0.128-6.912-0.128-10.752-0.128c-4.736,0-9.729,0-14.849,0.256l-19.327,1.408c-4.736,0.64-9.345,1.279-13.313,2.176
				c-2.943,0.64-4.864,2.176-6.912,2.176c-1.023,0-2.048-0.384-3.199-1.28c-3.2-2.432-5.761-5.248-6.145-5.76s-1.408-2.432-1.92-4.608
				c-0.128-0.384-0.128-0.768-0.128-1.023c0-0.64,0.256-0.896,0.768-0.896c0.513,0,1.024,0.128,1.792,0.641
				c3.712,2.304,6.272,3.071,9.601,3.071c1.023,0,2.304-0.128,3.584-0.256c6.912-0.768,15.744-1.407,24.832-2.048L59.391,28.543z"/>
			<path id="kvg:09999-s3" kvg:type="㇑" d="M52.73,21.06c0.92,0.92,1.08,2.19,1.08,3.85c0,6.46-0.04,16.84-0.04,27.59c0,1.8-0.02,3.57-0.02,5.25,
				M59.52,38.144c0,1.536,0,3.839,0.128,5.632c0.128,2.943,0.256,5.761,0.256,8.191c0,1.152,0,2.176-0.128,3.199
				c-0.256,3.841-2.049,6.145-4.096,6.145c-2.177,0-4.608-2.432-6.146-7.936c-0.256-0.769-0.384-1.536-0.384-2.176
				c0-2.434,1.023-4.354,1.28-7.425c0.128-1.151,0.128-2.305,0.128-3.327l0.128-11.265c0-1.023-0.128-1.792-0.128-2.56
				c-0.256-3.968-0.513-6.4-2.433-8.576c0,0-3.481-5.396,8.064-1.408c0.64,0.256,1.408,0.512,2.048,0.896
				c2.304,1.151,3.071,2.048,3.071,3.071c0,1.408-1.663,2.944-1.791,5.504c0,0.769-0.129,1.664-0.129,2.433L59.52,38.144z"/>
			<path id="kvg:09999-s4" kvg:type="㇒" d="M47.98,35.41c0,1.09-0.95,2.31-2.09,3.67c-7.48,8.93-19.42,19.21-31.13,24.39,
				M50.56,40.448C35.456,54.911,19.072,62.208,3.584,66.687C2.432,67.071,1.536,67.2,0.896,67.2
				C0.256,67.2,0,67.071,0,66.687c0-0.513,0.896-1.408,2.816-2.304c12.544-5.889,28.032-15.359,38.912-27.392l1.87-2.644
				c0,0-2.5-6.333,5.167-1.5C48.764,32.848,56.355,37.547,50.56,40.448z"/>
			<path id="kvg:09999-s5" kvg:type="㇏" d="M56.04,34.96c4.46,3.79,16.83,13.67,27.53,20.13c2.94,1.78,6.56,3.54,9.68,4.52,
				M61.055,35.583c11.393,6.784,26.495,13.566,32.64,16.128c6.271,2.56,14.977,5.76,21.76,7.552
				c1.92,0.512,2.816,1.151,2.816,1.664c0,0.512-1.024,1.024-2.944,1.28c-5.504,0.768-12.928,1.408-18.304,1.535
				c-0.641,0-1.279,0-1.792,0c-3.968,0-5.76-0.513-8.96-3.072c-5.376-4.223-17.407-13.951-26.751-22.527
				C59.52,38.144,51.512,29.484,61.055,35.583z"/>
		</g>
	</g>
	<g id="kvg:09999-g4" kvg:element="日" kvg:position="bottom">
		<path id="kvg:09999-s6" kvg:type="㇑" d="M33.02,65.47c0.76,0.76,1.42,2.12,1.53,3.07c0.83,7.34,1.84,16.47,2.84,24.76c0.21,1.78,0.43,3.45,0.66,4.95,
			M38.655,102.911c-0.384,2.688-2.176,4.479-4.224,4.479c-1.792,0-3.841-1.664-4.736-5.248
			c-0.256-0.896-0.384-1.793-0.384-2.433c0-1.536,0.512-2.688,0.512-4.096c0-0.129,0-0.257,0-0.385
			c-0.256-8.191-1.28-18.815-2.432-24.446c-0.641-3.072-2.561-6.018-4.864-7.554c-0.769-0.512-1.152-1.151-1.152-1.535
			c0-0.641,0.769-1.151,2.176-1.151c0,0,0.129,0,0.257,0c4.224,0.256,8.704,1.535,12.416,3.328c0,0,5.828,4.435,0.768,7.039
			c0.128,2.688,0.384,5.76,0.512,8.575l0.513,6.784c0.128,3.071,0.384,6.145,0.512,9.216C38.527,95.487,39.879,99.973,38.655,102.911z
	"/>
		<path id="kvg:09999-s7" kvg:type="㇕a" d="M35.44,67.59c8.15-1.36,24.31-3.72,36.08-4.79c3.5-0.32,6.77,0.39,6.35,4.71c-0.45,4.67-1.85,15.6-2.74,22.26c-0.3,2.22-0.54,3.97-0.68,4.85,
			M74.879,94.59c0.385-3.328,0.641-6.527,0.896-9.729l0.384-7.039c0.128-2.562,0.128-5.505,0.128-8.191
			c-12.8,0-24.96,0.64-35.072,1.535c-0.384,0-0.768,0-1.151,0c-1.024,0-2.048-0.127-3.072-0.256c0,0-7.061-2.396-8.228-6.229
			c0,0-0.833-3.334,1.5-1.667c0.5,0.167,2.419,1.38,5.959,0.856c1.792,0.127,3.456,0.127,4.991,0c7.937-0.642,21.12-1.664,31.36-2.05
			c1.664,0,2.688-0.384,4.096-1.663c0.77-0.641,1.28-1.023,2.048-1.023c0.642,0,1.28,0.256,2.306,0.768
			c3.071,1.793,4.606,2.944,6.783,4.992c1.023,1.023,1.407,1.92,1.407,2.688c0,2.176-2.56,3.84-2.815,7.168
			c-0.512,8.448-1.663,17.92-3.199,27.137c-0.513,3.071-2.816,4.479-4.992,4.479s-4.224-1.536-4.352-4.225
			C73.613,100.104,74.879,94.59,74.879,94.59z"/>
		<path id="kvg:09999-s8" kvg:type="㇐a" d="M36.58,80.52c8.29-0.9,31.17-3.65,39.22-4.11,
			M75.775,84.863c-1.28,0-2.688,0-3.969,0c-11.647,0-22.783,0.514-33.791,1.408c0,0-6.251-2.423-7.418-7.256
			c0,0-0.167-2.499,2.167-0.333c0,0,1.979,0.943,4.738,0.805c12.801-0.896,25.345-1.407,38.656-1.663c0,0,1.605-1.31,4.605-0.976
			c0,0,4.5,0.166,4,5.5C84.765,82.348,84.953,87.877,75.775,84.863z"/>
		<path id="kvg:09999-s9" kvg:type="㇐a" d="M38.44,94.26C46.12,93.5,63.88,92,74.29,91.4,
			M73.848,102.098c-1.28,0-2.688,0-3.97,0c-11.646,0-20.272-0.063-31.28,0.833c0,0-5.823-3.055-6.989-7.888
			c0,0-0.167-2.499,2.167-0.333c0,0,1.979,0.942,4.739,0.805c12.8-0.896,23.104-0.661,36.417-0.917c0,0,1.604-1.309,4.604-0.975
			c0,0,4.5,0.166,4,5.5C83.536,99.124,83.025,105.113,73.848,102.098z"/>
	</g>
</g>
</g>
<g id="kvg:StrokeNumbers_09999" style="font-size:8;fill:#808080">
	<text transform="matrix(1 0 0 1 57.75 9.13)">1</text>
	<text transform="matrix(1 0 0 1 12.50 37.50)">2</text>
	<text transform="matrix(1 0 0 1 45.75 28.50)">3</text>
	<text transform="matrix(1 0 0 1 30.75 46.63)">4</text>
	<text transform="matrix(1 0 0 1 71.25 43.63)">5</text>
	<text transform="matrix(1 0 0 1 27.50 74.50)">6</text>
	<text transform="matrix(1 0 0 1 38.25 63.50)">7</text>
	<text transform="matrix(1 0 0 1 41.25 76.50)">8</text>
	<text transform="matrix(1 0 0 1 41.24 90.50)">9</text>
</g>
</svg>
