<?xml version="1.0" encoding="UTF-8" standalone="no"?>
<svg
   xmlns:dc="http://purl.org/dc/elements/1.1/"
   xmlns:cc="http://creativecommons.org/ns#"
   xmlns:rdf="http://www.w3.org/1999/02/22-rdf-syntax-ns#"
   xmlns:svg="http://www.w3.org/2000/svg"
   xmlns="http://www.w3.org/2000/svg"
   viewBox="0 0 183.32001 50.253334"
   height="50.253334"
   width="183.32001"
   xml:space="preserve"
   id="svg2"
   version="1.1"><metadata
     id="metadata8"><rdf:RDF><cc:Work
         rdf:about=""><dc:format>image/svg+xml</dc:format><dc:type
           rdf:resource="http://purl.org/dc/dcmitype/StillImage" /></cc:Work></rdf:RDF></metadata><defs
     id="defs6" /><g
     transform="matrix(1.3333333,0,0,-1.3333333,0,50.253333)"
     id="g10"><g
       transform="scale(0.1)"
       id="g12"><path
         id="path14"
         style="fill:#ffffff;fill-opacity:1;fill-rule:nonzero;stroke:none"
         d="M 1374.9,0 H 0.214844 V 376.918 H 1374.9 V 0" /><path
         id="path16"
         style="fill:#2c3e7f;fill-opacity:1;fill-rule:nonzero;stroke:none"
         d="M 0,0.371094 H 372.703 V 376.488 H 0 V 0.371094" /><path
         id="path18"
         style="fill:#ffffff;fill-opacity:1;fill-rule:nonzero;stroke:none"
         d="m 322.395,203.48 h 36.121 V 13.1445 H 297.285 L 242.91,117.578 c -2.707,5.203 -6.926,14.317 -12.683,27.344 l -6.133,13.652 -5.996,13.684 h -1.399 l 0.559,-12.57 0.418,-12.391 0.273,-24.953 V 13.1445 H 181.836 V 203.48 h 61.211 l 49.504,-96.488 c 4.375,-8.5623 9.441,-18.9256 15.215,-31.1131 l 7.246,-15.4687 7.254,-15.6055 h 1.257 l -0.418,12.2656 -0.429,12.2461 -0.281,24.582 V 203.48" /><path
         id="path20"
         style="fill:#2c3e7f;fill-opacity:1;fill-rule:nonzero;stroke:none"
         d="m 399.551,187.727 c -9.949,-11.622 -14.922,-40.11 -14.922,-85.493 0,-38.1129 5.066,-62.7809 15.195,-73.9723 10.125,-11.2109 32.489,-16.7969 67.071,-16.7969 38.386,0 62.585,5.6641 72.585,17.0118 9.985,11.3476 14.993,38.8086 14.993,82.4214 0,39.883 -4.993,65.555 -14.922,77.032 -9.961,11.48 -32.215,17.23 -66.797,17.23 -38.859,0 -63.262,-5.82 -73.203,-17.433 z M 511.445,165.48 c 4.231,-5.8 6.348,-24.66 6.348,-56.535 0,-31.7966 -2.219,-50.8395 -6.688,-57.1091 -4.472,-6.289 -17.89,-9.414 -40.304,-9.414 -23.43,0 -37.539,2.7929 -42.324,8.3594 -4.793,5.5859 -7.188,22.0312 -7.188,49.3747 0,36.907 2.039,58.477 6.145,64.688 4.089,6.261 18.257,9.367 42.527,9.367 23.43,0 37.258,-2.91 41.484,-8.731" /><path
         id="path22"
         style="fill:#2c3e7f;fill-opacity:1;fill-rule:nonzero;stroke:none"
         d="m 803.574,203.48 h 36.953 L 789.629,13.1445 h -53.418 l -26.484,97.6175 c -2.403,8.828 -5.254,20.605 -8.497,35.41 l -2.667,11.719 h -1.239 l -2.804,-11.875 -2.645,-11.7 c -1.953,-7.902 -4.031,-15.808 -6.277,-23.691 l -27.2,-97.4805 H 605.559 L 556.191,203.48 H 593.02 L 620.48,99.0313 c 1.668,-6.7149 3.758,-15.9258 6.266,-27.7422 l 2.934,-13.9453 2.8,-13.9454 h 1.243 c 1.48,6.1329 2.593,10.7813 3.347,13.9454 l 3.34,13.8085 c 1.77,7.2461 4.238,16.4961 7.41,27.7344 L 677.109,203.48 h 42.364 L 748.066,98.8867 c 2.422,-8.914 4.786,-18.164 7.129,-27.7344 l 3.184,-13.8085 3.359,-13.9454 h 1.114 l 3.086,13.9454 2.91,13.9453 c 2.402,11.25 4.609,20.5468 6.562,27.8906 L 803.574,203.48" /><path
         id="path24"
         style="fill:#2c3e7f;fill-opacity:1;fill-rule:nonzero;stroke:none"
         d="m 887.559,74.6289 h 42.539 l 8.359,0.1563 c 26.035,0 43.34,4.1601 51.875,12.5586 8.555,8.3398 12.848,25.2542 12.848,50.7422 0,25.664 -4.508,42.949 -13.492,51.937 -8.946,8.965 -26.309,13.457 -52.051,13.457 h -9.492 -76.68 V 13.1445 h 36.094 z m 44.765,98.4691 c 15.43,0 24.981,-1.953 28.672,-5.813 3.652,-3.867 5.508,-13.801 5.508,-29.902 0,-14.055 -2.227,-22.942 -6.621,-26.68 -4.434,-3.777 -14.824,-5.652 -31.192,-5.652 h -41.132 v 68.047 h 44.765" /><path
         id="path26"
         style="fill:#2c3e7f;fill-opacity:1;fill-rule:nonzero;stroke:none"
         d="m 1056.35,77.2852 h 52.01 c 19.35,0 29,-9.8047 29,-29.4336 V 13.1445 h 36.14 v 41.9727 c 0,23.3203 -10.55,35.6562 -31.66,36.9336 v 1.2695 c 13.65,2.7149 22.71,7.5777 27.12,14.6597 4.4,7.032 6.63,20.204 6.63,39.442 0,21.211 -4.44,35.851 -13.27,43.926 -8.82,8.09 -24.9,12.132 -48.24,12.132 h -93.85 V 13.1445 h 36.12 z m 54.37,95.8128 c 11.82,0 19.48,-1.993 22.97,-5.93 3.46,-3.953 5.22,-12.715 5.22,-26.301 0,-13.308 -2.03,-22.137 -6.06,-26.57 -4.06,-4.402 -12.26,-6.609 -24.61,-6.609 h -51.89 v 65.41 h 54.37" /><path
         id="path28"
         style="fill:#2c3e7f;fill-opacity:1;fill-rule:nonzero;stroke:none"
         d="m 1204.22,187.727 c -9.96,-11.622 -14.92,-40.11 -14.92,-85.493 0,-38.1129 5.06,-62.7809 15.19,-73.9723 10.14,-11.2109 32.48,-16.7969 67.07,-16.7969 38.38,0 62.6,5.6641 72.58,17.0118 10,11.3476 15.02,38.8086 15.02,82.4214 0,39.883 -5,65.555 -14.96,77.032 -9.92,11.48 -32.19,17.23 -66.76,17.23 -38.89,0 -63.3,-5.82 -73.22,-17.433 z m 111.91,-22.247 c 4.22,-5.8 6.35,-24.66 6.35,-56.535 0,-31.7966 -2.25,-50.8395 -6.7,-57.1091 -4.47,-6.289 -17.89,-9.414 -40.29,-9.414 -23.46,0 -37.56,2.7929 -42.33,8.3594 -4.8,5.5859 -7.2,22.0312 -7.2,49.3747 0,36.907 2.05,58.477 6.15,64.688 4.08,6.261 18.24,9.367 42.52,9.367 23.44,0 37.26,-2.91 41.5,-8.731" /></g></g></svg>